HIERARCHY
ROOT SpineBase
{
  OFFSET 0.000000 0.000000 0.000000
  CHANNELS 6 Xposition Yposition Zposition Zrotation Xrotation Yrotation
  JOINT SpineMid
  {
    OFFSET 0.000000 32.894413 0.000000
    CHANNELS 3 Zrotation Xrotation Yrotation
    JOINT SpineShoulder
    {
      OFFSET 0.207425 24.469081 -0.746653
      CHANNELS 3 Zrotation Xrotation Yrotation
      JOINT Neck
      {
        OFFSET 0.123698 8.106261 -0.568083
        CHANNELS 3 Zrotation Xrotation Yrotation
        JOINT Head
        {
          OFFSET 5.002635 11.973549 4.727436
          CHANNELS 3 Zrotation Xrotation Yrotation
          End Site
          {
            OFFSET 0 0 0
          }
        }
      }
      JOINT ShoulderLeft
      {
        OFFSET -10.792406 -3.174200 -11.713436
        CHANNELS 3 Zrotation Xrotation Yrotation
        JOINT ElbowLeft
        {
          OFFSET -7.116215 -24.646369 -6.777131
          CHANNELS 3 Zrotation Xrotation Yrotation
          JOINT WristLeft
          {
            OFFSET 2.157126 -20.021456 -5.027663
            CHANNELS 3 Zrotation Xrotation Yrotation
            JOINT HandLeft
            {
              OFFSET 1.816868 -8.120425 0.444389
              CHANNELS 3 Zrotation Xrotation Yrotation
              JOINT HandTipLeft
              {
                OFFSET 2.211581 -8.480381 -1.421075
                CHANNELS 3 Zrotation Xrotation Yrotation
                End Site
                {
                  OFFSET 0 0 0
                }
              }
              JOINT ThumbLeft
              {
                OFFSET 4.525038 -0.110340 4.781378
                CHANNELS 3 Zrotation Xrotation Yrotation
                End Site
                {
                  OFFSET 0 0 0
                }
              }
            }
          }
        }
      }
      JOINT ShoulderRight
      {
        OFFSET 12.050523 -4.014699 11.143412
        CHANNELS 3 Zrotation Xrotation Yrotation
        JOINT ElbowRight
        {
          OFFSET 1.630632 -25.209476 5.066431
          CHANNELS 3 Zrotation Xrotation Yrotation
          JOINT WristRight
          {
            OFFSET 0.846073 -25.986330 0.947237
            CHANNELS 3 Zrotation Xrotation Yrotation
            JOINT HandRight
            {
              OFFSET -0.293920 -10.375956 1.028767
              CHANNELS 3 Zrotation Xrotation Yrotation
              JOINT HandTipRight
              {
                OFFSET -0.335934 -5.539475 -0.283120
                CHANNELS 3 Zrotation Xrotation Yrotation
                End Site
                {
                  OFFSET 0 0 0
                }
              }
              JOINT ThumbRight
              {
                OFFSET -2.497028 -3.355060 -2.854233
                CHANNELS 3 Zrotation Xrotation Yrotation
                End Site
                {
                  OFFSET 0 0 0
                }
              }
            }
          }
        }
      }
    }
  }
  JOINT HipLeft
  {
    OFFSET -4.909231 1.802711 -8.127900
    CHANNELS 3 Zrotation Xrotation Yrotation
    JOINT KneeLeft
    {
      OFFSET -11.288797 -32.847788 -3.405590
      CHANNELS 3 Zrotation Xrotation Yrotation
      JOINT AnkleLeft
      {
        OFFSET -9.418139 -38.066492 5.975323
        CHANNELS 3 Zrotation Xrotation Yrotation
        JOINT FootLeft
        {
          OFFSET 0.907234 -7.100976 -6.719553
          CHANNELS 3 Zrotation Xrotation Yrotation
          End Site
          {
            OFFSET 0 0 0
          }
        }
      }
    }
  }
  JOINT HipRight
  {
    OFFSET 5.580328 0.164342 1.148143
    CHANNELS 3 Zrotation Xrotation Yrotation
    JOINT KneeRight
    {
      OFFSET -5.477877 -36.603737 2.547678
      CHANNELS 3 Zrotation Xrotation Yrotation
      JOINT AnkleRight
      {
        OFFSET -9.623326 -36.335757 8.039249
        CHANNELS 3 Zrotation Xrotation Yrotation
        JOINT FootRight
        {
          OFFSET 0.773502 -7.690135 -4.711803
          CHANNELS 3 Zrotation Xrotation Yrotation
          End Site
          {
            OFFSET 0 0 0
          }
        }
      }
    }
  }
}
MOTION
Frames: 5
Frame Time: 0.033333
-32.102992 82.954841 340.261277 -3.284918 2.663482 -47.237282 0.682767 0.836618 47.245143 0.416366 -0.015057 -0.066833 0.172805 -4.797856 1.618141 0.000000 0.000000 0.000000 12.764213 25.117623 -12.692826 47.298676 20.273574 2.220968 24.265255 19.813540 25.417007 -8.385552 6.074722 -24.456761 0.000000 0.000000 0.000000 0.000000 0.000000 0.000000 0.868101 4.567015 0.518503 0.869165 -7.283766 -0.238600 1.635115 5.223960 -0.060848 0.065021 -5.725689 0.017739 0.000000 0.000000 0.000000 0.000000 0.000000 0.000000 5.335650 1.552826 47.186118 -1.476938 0.200748 0.086332 -1.996579 0.783569 1.994623 0.000000 0.000000 0.000000 4.045786 3.780717 47.114343 -3.029514 -4.084931 0.398328 1.550776 -0.784942 -1.058137 0.000000 0.000000 0.000000
-32.098650 82.944498 340.233976 -2.994421 2.698245 -47.353933 0.680122 0.847484 47.365103 0.393508 -0.033423 -0.057287 0.055224 -5.045027 1.633242 0.000000 0.000000 0.000000 15.304519 24.801203 -13.986273 45.129981 17.397921 3.609277 19.276209 20.986975 21.949381 -8.445124 5.057191 -22.154333 0.000000 0.000000 0.000000 0.000000 0.000000 0.000000 0.624859 4.543966 0.498450 0.839900 -7.285015 -0.246317 4.215641 4.071219 0.153589 -0.688932 -4.307059 -0.361629 0.000000 0.000000 0.000000 0.000000 0.000000 0.000000 5.194643 1.322979 47.317182 -1.496998 0.227799 0.079529 -1.801287 1.126782 1.852671 0.000000 0.000000 0.000000 3.848346 3.599654 47.229094 -2.963109 -4.251689 0.457129 1.078970 -0.533796 -0.854384 0.000000 0.000000 0.000000
-32.145696 82.865800 340.194981 -2.775239 2.746844 -47.540191 0.729168 0.881909 47.556335 0.359079 -0.052109 -0.049491 0.022989 -5.271910 1.630256 0.000000 0.000000 0.000000 17.564684 25.515151 -15.544519 43.050617 14.298089 5.939063 15.521741 20.811746 19.993012 -9.450859 0.570745 -18.725035 0.000000 0.000000 0.000000 0.000000 0.000000 0.000000 0.408096 4.533668 0.480553 1.669456 -7.161723 -0.110519 4.536811 3.859038 0.210585 -0.772080 -4.611765 -0.461871 0.000000 0.000000 0.000000 0.000000 0.000000 0.000000 5.156958 1.146605 47.522951 -1.551016 0.285372 0.066279 -1.970129 0.929143 1.988089 0.000000 0.000000 0.000000 3.755752 3.509890 47.417172 -2.927704 -4.441067 0.527072 0.790384 0.654572 -0.705628 0.000000 0.000000 0.000000
-32.161137 82.845179 340.171504 -2.509744 2.768416 -47.642909 0.739724 0.870559 47.660856 0.351055 -0.077413 -0.039513 -0.022519 -5.464430 1.626925 0.000000 0.000000 0.000000 19.424483 27.060332 -17.297104 42.090127 11.268702 8.735293 13.776397 21.002252 18.749006 -9.382202 -1.400701 -17.319933 0.000000 0.000000 0.000000 0.000000 0.000000 0.000000 0.168193 4.566515 0.459727 1.858049 -6.891691 -0.075320 4.610903 3.331904 0.256779 -0.877554 -3.295538 -0.620034 0.000000 0.000000 0.000000 0.000000 0.000000 0.000000 5.063081 0.945467 47.643597 -1.599115 0.337901 0.054117 -2.276936 0.444630 2.217769 0.000000 0.000000 0.000000 3.608800 3.364792 47.520571 -2.847409 -4.628315 0.605873 0.014147 0.988580 -0.347403 0.000000 0.000000 0.000000
-32.180601 82.874152 340.150338 -2.260288 2.796450 -47.565062 0.746151 0.823007 47.583273 0.360718 -0.093295 -0.029621 -0.168862 -5.662206 1.670845 0.000000 0.000000 0.000000 20.694970 29.159281 -19.017088 41.394448 8.619651 11.742768 14.571189 19.383383 19.008862 -12.007801 -4.069320 -16.382829 0.000000 0.000000 0.000000 0.000000 0.000000 0.000000 -0.066021 4.605510 0.437771 1.706545 -6.699410 -0.094246 5.703240 3.510862 0.314901 0.327027 -3.744981 -0.680304 0.000000 0.000000 0.000000 0.000000 0.000000 0.000000 4.979227 0.769564 47.571900 -1.666339 0.360987 0.053678 -2.519732 -0.106378 2.377268 0.000000 0.000000 0.000000 3.537352 3.189839 47.450996 -2.814363 -4.787366 0.674771 -0.443183 1.496499 -0.152387 0.000000 0.000000 0.000000
